<svg width="45" xmlns="http://www.w3.org/2000/svg" height="40.512" id="screenshot-089ad4b0-530f-80da-8008-5bce5c9ece80" viewBox="0 0 45 40.512" xmlns:xlink="http://www.w3.org/1999/xlink" fill="none" version="1.1"><g id="shape-089ad4b0-530f-80da-8008-5bce5c9ece80"><g class="fills" id="fills-089ad4b0-530f-80da-8008-5bce5c9ece80"><path d="M-0.000008855198757373728,20.110872268676758C-0.000008855198757373728,21.035676956176758,0.7315585017204285,21.594270706176758,1.6374423503875732,21.594270706176758C2.1960361003875732,21.594270706176758,2.6391513347625732,21.324739456176758,3.0247714519500732,20.938997268676758L21.826162338256836,3.8130202293395996C22.037221908569336,3.6020827293395996,22.269277572631836,3.5239577293395996,22.518789291381836,3.5239577293395996C22.750844955444336,3.5239577293395996,22.962759017944336,3.6020827293395996,23.192617416381836,3.8130202293395996L41.97521209716797,20.938997268676758C42.37975311279297,21.324739456176758,42.82274627685547,21.594270706176758,43.36254119873047,21.594270706176758C44.26757049560547,21.594270706176758,44.99999237060547,21.035676956176758,44.99999237060547,20.110872268676758C44.99999237060547,19.532747268676758,44.78807830810547,19.166536331176758,44.42211151123047,18.839387893676758L37.75646209716797,12.771027565002441L37.75646209716797,1.38626229763031C37.75646209716797,0.5386060476303101,37.21703338623047,0.0005201344611123204,36.36986541748047,0.0005201344611123204L33.84667205810547,0.0005201344611123204C33.01793670654297,0.0005201344611123204,32.44042205810547,0.5386060476303101,32.44042205810547,1.38626229763031L32.44042205810547,7.9360671043396L24.811269760131836,0.9624341726303101C24.137441635131836,0.32669201493263245,23.308706283569336,0.020051384344697,22.499990463256836,0.020051384344697C21.690542221069336,0.020051384344697,20.881460189819336,0.32766857743263245,20.187978744506836,0.9634107351303101L0.5778719782829285,18.839387893676758C0.23070403933525085,19.166536331176758,-0.000008855198757373728,19.532747268676758,-0.000008855198757373728,20.110872268676758M5.509390354156494,36.272979736328125C5.509390354156494,38.950714111328125,7.127554416656494,40.510284423828125,9.843375205993652,40.510284423828125L17.645986557006836,40.510284423828125L17.645986557006836,26.814973831176758C17.645986557006836,25.928255081176758,18.242300033569336,25.351106643676758,19.128408432006836,25.351106643676758L25.928945541381836,25.351106643676758C26.815053939819336,25.351106643676758,27.392934799194336,25.928255081176758,27.392934799194336,26.814973831176758L27.392934799194336,40.510284423828125L35.17552947998047,40.510284423828125C37.89122772216797,40.510284423828125,39.49059295654297,38.950714111328125,39.49059295654297,36.272979736328125L39.49059295654297,22.172395706176758L23.135244369506836,7.4350905418396C22.923330307006836,7.2427077293396,22.692251205444336,7.1460280418396,22.461416244506836,7.1460280418396C22.249135971069336,7.1460280418396,22.037221908569336,7.2427077293396,21.806142807006836,7.4546217918396L5.509390354156494,22.268098831176758Z" style="fill: rgb(0, 195, 255); fill-opacity: 1;"/></g></g></svg>