<?xml version="1.0" encoding="UTF-8"?>
<!-- Created with Inkscape (http://www.inkscape.org/) -->
<svg width="118.13mm" height="123.85mm" version="1.1" viewBox="0 0 446.46 468.09" xml:space="preserve" xmlns="http://www.w3.org/2000/svg"><g transform="translate(-2455.2 -3138.1)"><path d="m2496.5 3604.7c-17.36-4.2087-32.48-17.989-38.894-35.447l-2.3879-6.5v-381l2.3879-6.5c6.6136-18.003 21.234-31.224 39.215-35.462 9.6292-2.2698 258.16-2.2698 267.79 0 19.327 4.5557 35.468 20.533 40.518 40.107 1.3881 5.3804 1.5825 16.881 1.5638 92.5l-0.021 86.356-21.988 27c-22.031 27.053-24.917 31.565-23.591 36.884 0.3816 1.5299-0.9554 3.9518-4.8289 8.7474-2.9461 3.6474-11.162 13.772-18.257 22.5-25.701 31.614-30.27 37.372-32.686 41.2-3.1758 5.0308-16.606 49.641-16.606 55.159 0 3.4532 0.6104 4.8193 3.4 7.6088 4.6096 4.6096 10.149 4.6968 18.327 0.2884 26.842-14.469 39.268-21.632 42.12-24.28 1.8412-1.7097 13.541-15.682 26-31.05 12.459-15.368 23.877-29.318 25.373-31l2.7206-3.0584 0.029 44.114c0.017 25.086-0.3994 46.437-0.9645 49.5-2.645 14.336-14.589 30.266-27.961 37.293-13.125 6.8968-5.7251 6.5711-147.55 6.4951-105.52-0.056-129-0.312-133.72-1.4548zm50.64-45.127c3.4678-2.1405 8.0532-4.0104 10.962-4.4702 6.4176-1.0145 8.3793-3.0758 10.15-10.665 0.7925-3.3972 2.7906-8.0308 4.4519-10.324 3.8604-5.3291 3.793-7.7726-0.406-14.71-1.8812-3.1079-3.7368-7.6585-4.1237-10.112-1.1742-7.4479-2.8493-8.8535-12.457-10.453-1.9258-0.3206-5.7175-2.1585-8.4261-4.0842-2.7086-1.9258-5.8913-3.5014-7.0726-3.5014-1.1814 0-4.2919 1.5243-6.9122 3.3873-3.0162 2.1444-6.9369 3.8147-10.686 4.5522-7.1793 1.4125-9.4513 3.6049-10.29 9.9304-0.3801 2.8652-2.0065 6.9126-4.0954 10.191-1.9058 2.9913-3.4766 6.597-3.4906 8.0127s1.516 4.7422 3.4001 7.3924c2.2427 3.1544 3.6595 6.5178 4.1026 9.7395 0.923 6.7115 3.6477 9.556 10.339 10.794 2.978 0.551 7.861 2.5527 10.969 4.4966 3.0807 1.927 6.0565 3.5036 6.6129 3.5036 0.5563 0 3.6942-1.6558 6.9731-3.6796zm133.65-119.24c1.995-1.9949 2.9231-3.9244 2.9231-6.0769s-0.9281-4.0819-2.9231-6.0769l-2.9231-2.9231h-80.143c-82.498 0-82.733 0.011-85.729 3.9134-2.123 2.7651-1.534 8.5225 1.1704 11.441l2.4523 2.646h162.25zm64.943-58.587c5.5056-2.8471 6.6896-9.3906 2.5666-14.184l-2.4135-2.8058h-230.35l-2.4134 2.8058c-4.0497 4.708-2.9568 11.249 2.3617 14.135 4.1643 2.2599 225.88 2.3066 230.24 0.048zm1.9032-62.079c4.1135-3.4612 4.3015-8.9137 0.4404-12.775l-2.6364-2.6364h-229.82l-2.4523 2.646c-3.4901 3.766-3.3049 8.6552 0.4708 12.431l2.9231 2.9231h228zm-21.158-77.832 3.7353-3.421 0.3354-10.964c0.382-12.485-0.7172-15.932-6.134-19.235-3.1123-1.8977-5.7003-1.9521-92.984-1.9557-98.882 0-94.715-0.2652-98.738 6.186-1.8251 2.9266-2.0304 4.6231-1.7719 14.639l0.2925 11.329 7.4706 6.8417h184.06zm-27.765 308.36c0-2.9391 2.3809-9.9376 3.3687-9.9021 1.3223 0.048 8.2145 5.7525 7.5687 6.2649-4.6396 3.6815-10.937 5.7759-10.937 3.6372zm13-12.273c-8.428-6.6334-8.2198-5.4856-3.705-20.42 2.2031-7.2875 4.4153-13.25 4.9162-13.25 1.9129 0 28.289 22.21 28.289 23.821 0 1.1138-3.8731 3.779-11.5 7.9137-6.325 3.4288-11.725 6.241-12 6.2493-0.275 0.01-2.975-1.9328-6-4.3137zm28.19-21.257c-4.5048-3.6634-8.1904-6.9993-8.1904-7.4131s3.0639-4.5205 6.8086-9.1261c3.7448-4.6057 12.97-15.959 20.5-25.229 7.5303-9.2703 13.691-17.692 13.691-18.715 0-1.0228-0.9923-2.3908-2.2052-3.0399-2.6427-1.4143-1.3926-2.7525-26.962 28.86-9.8984 12.238-18.211 22.25-18.473 22.25-0.8441 0-8.359-6.3109-8.359-7.0198 0-0.3767 4.523-6.2639 10.051-13.083 5.5282-6.8187 17.063-21.07 25.633-31.671 8.5699-10.6 16.022-19.545 16.561-19.878 0.5384-0.3328 1.2662-0.1955 1.6172 0.3051s7.2757 6.2387 15.388 12.751c8.1125 6.5126 14.75 12.247 14.75 12.744 0 0.8706-45.985 57.983-50.434 62.638l-2.1858 2.2869zm94.712-62.511c-1.553-1.553-1.9258-2.7867-1.4356-4.75 0.9854-3.9458 0.9009-5.3322-0.5376-8.8215-1.47-3.5659-1.1772-4.1245 8.502-16.221 5.2529-6.5647 8.2153-8.0591 12.654-6.3835 2.4982 0.9429 2.9765 0.7088 5.5736-2.7283 1.5626-2.0678 7.3789-9.3258 12.925-16.129 11.254-13.804 12.416-15.614 12.416-19.338 0-2.6473-2.5971-7.5306-4.005-7.5306-0.4262 0-9.937 11.301-21.135 25.113-39.527 48.754-45.083 55.394-46.937 56.096-1.4217 0.5379-4.5868-1.4779-13.148-8.3737-6.2014-4.9951-11.673-9.4469-12.16-9.893-1.0405-0.9538 1.2978-4.2093 15.09-21.01 27.986-34.089 39.294-48.509 39.294-50.106 0-1.9526-3.4932-4.2572-5.0212-3.3128-0.5389 0.3331-13.383 15.879-28.542 34.546-15.159 18.667-27.871 33.928-28.25 33.914-1.7196-0.068-8.1877-7.2147-8.1877-9.0471 0-2.0133 2.9973-5.9141 29.978-39.014 7.437-9.1238 18.895-23.22 25.461-31.326 6.5668-8.1056 12.854-15.378 13.972-16.161 1.1181-0.7831 3.7317-1.4239 5.8079-1.4239 3.3828 0 5.8646 1.6815 23.884 16.183 11.284 9.081 21.252 17.909 22.712 20.117 4.0256 6.0832 4.2316 14.578 0.5206 21.47-3.2527 6.0398-50.604 64.736-52.951 65.636-2.6954 1.0343-4.3252 0.6566-6.4847-1.5029zm37.397-115.25c-9.4603-7.7846-17.441-14.41-17.735-14.722-1.1129-1.1836 9.1147-12.382 13.343-14.61 17.258-9.0917 39.321 10.195 32.922 28.779-1.0759 3.1249-9.2088 14.197-10.69 14.553-0.3517 0.085-8.3797-6.2153-17.84-14z" fill="#0756ff"/></g></svg>
