<svg data-v-3982f011="" xmlns="http://www.w3.org/2000/svg" xmlns:xlink="http://www.w3.org/1999/xlink" aria-hidden="true" role="img" class="iconify iconify--n8n text-white"   viewBox="0 0 20 20" style="font-size: 20px;" width="20" height="20"><g fill="none"><path d="M10.833 11.45a1.667 1.667 0 0 1-1.667 0L2.083 7.392a.833.833 0 0 1 0-1.45l7.083-4.059a1.667 1.667 0 0 1 1.667 0l7.083 4.059a.833.833 0 0 1 0 1.45l-7.083 4.058zM16.666 11.902l1.25.705a.833.833 0 0 1 0 1.45l-7.083 4.058a1.667 1.667 0 0 1-1.667 0l-7.083-4.058a.834.834 0 0 1 0-1.45l1.25-.705" stroke="#FFFFFF" stroke-linecap="round" stroke-linejoin="round" fill="none"></path></g></svg>